<svg xmlns="http://www.w3.org/2000/svg" xmlns:xlink="http://www.w3.org/1999/xlink" x="0px" y="0px" viewBox="0 0 803.2 621.9" style="enable-background:new 0 0 803.2 621.9;" xml:space="preserve"><style type="text/css">	.st1{fill:#00FFFF;opacity:0.5;}	.st2{fill:#1ADAF8;}	.st3{fill:none;}	.h1, .h2 { transform-origine: 50% 50%; }	.h1 { animation: h1a 2s infinite alternate linear; }	.h2 { animation: h2a 2s infinite alternate linear; }	@keyframes h1a { 0% {opacity:1} 40% {opacity:0} 60% {opacity:0} 100% {opacity:0}}	@keyframes h2a { 0% {opacity:0} 40% {opacity:0} 60% {opacity:0} 100% {opacity:1}}</style>	<path class="st1" d="M15.9,427.3L0.1,362.1L0,361.9l48.7-47l0.2-0.2l64.8,18.2l15.8,65.2l0.1,0.2l-48.7,47l-0.2,0.2L15.9,427.3z    M113,333.5l-63.9-17.9L0.9,362.1l15.7,64.5l63.9,17.9l48.2-46.6L113,333.5z"></path>	<path class="st1" d="M275.6,132.2l0.7-35.1l0-0.2l31.1-17.4l30.4,17.9l-0.7,35.1l0,0.2L306,150.1L275.6,132.2z M337.2,97.8   l-29.8-17.5l-30.5,17l-0.7,34.6l29.8,17.5l30.5-17L337.2,97.8z"></path>	<path class="st1" d="M47.7,253.6l5.5-36.6l0-0.2l34.9-13.9l29.4,22.9l-5.5,36.6l0,0.2l-34.9,13.9L47.7,253.6z M116.7,226L88,203.7   L54,217.3l-5.4,35.9l28.6,22.3l34.1-13.6L116.7,226z"></path>	<path class="st1" d="M638.3,417.1l17.3-30.3l35.2-0.4l17.9,29.9l-17.3,30.3l-35.2,0.4L638.3,417.1z M707.9,416.4l-17.5-29.1   l-34.3,0.4l-16.9,29.5l17.5,29.1l34.3-0.4L707.9,416.4z"></path>	<path class="st1" d="M541.4,566.5l-0.2-0.2l8.3-36.6l36.1-11.5l27.7,25l0.2,0.2l-8.3,36.6l-36.1,11.5L541.4,566.5z M612.7,543.7   l-27.2-24.5l-35.3,11.2l-8.1,35.7l27.2,24.5l35.3-11.2L612.7,543.7z"></path>	<path class="st1" d="M595.6,329.9L595.6,329.9l3.6-16.3l0-0.1l16.1-5.1l12.4,11.1l0.1,0.1l-3.7,16.2l0,0.1l-16,5.1l-0.1,0   L595.6,329.9z M627.3,319.7l-12.1-10.9l-15.7,5l-3.6,15.9l12.1,10.9l15.7-5L627.3,319.7z"></path>	<path class="st1" d="M172.6,208.8l-5-29l0-0.1l22.4-18.8l27.4,10.3l5,29l0,0.1L200,219.1L172.6,208.8z M217,171.5l-26.8-10.1   l-21.9,18.4l4.9,28.5l26.8,10.1l21.9-18.4L217,171.5z"></path>	<path class="st1" d="M501.7,450.5l-0.1-0.1l23.4-51l0.1-0.2l55.5-5.5l31.9,45.5l0.1,0.1l-23.4,51l-0.1,0.2l-55.5,5.5L501.7,450.5z    M611.8,439.5l-31.6-45.1l-54.8,5.4l-23.2,50.5l31.6,45.1l54.8-5.4L611.8,439.5z"></path>	<path class="st1" d="M413.9,432.8l-0.1,0l-9.5-35.8l0-0.1l25.8-26l0.1-0.1l35.3,9.8l0.1,0l9.6,35.9l-25.8,26l-0.1,0.1L413.9,432.8z    M465.3,380.9l-34.9-9.7l-25.5,25.7l9.4,35.4l34.9,9.7l25.5-25.7L465.3,380.9z"></path>	<path class="st1" d="M683.3,621.2l-0.2,0l-36.5-63.8l-0.1-0.2l36.4-63.3l72.8,0.7l0.2,0l36.5,63.8l0.1,0.2l-36.4,63.3L683.3,621.2z    M755.4,495.4l-72.1-0.7l-35.9,62.5l36.2,63.2l72.1,0.7l35.9-62.5L755.4,495.4z"></path>	<path class="st1" d="M756.5,442.7l-11.1-27.3l17.7-23l0.1-0.1l28.9,4.2l11.1,27.3l-17.7,23l-0.1,0.1L756.5,442.7z M791.8,396.9   l-28.3-4.1L746,415.5l10.9,26.8l28.3,4.1l17.5-22.7L791.8,396.9z"></path>	<path class="st1" d="M143.1,89.3l-0.1-0.2l19.2-45.8l0.1-0.2l48.9-6.5L240.7,76l0.1,0.2l-19.2,45.8l-0.1,0.2l-48.9,6.5L143.1,89.3z    M240,76.3l-29.1-38.8l-48,6.4l-19,45.1l29.1,38.8l48-6.4L240,76.3z"></path>	<path class="st1" d="M98.6,165.1l-0.1-0.1l-3.8-23.5l0-0.1l18.2-15l0.1-0.1l21.9,8.5l0.1,0.1l3.8,23.5l0,0.1l-18.2,15l-0.1,0.1   L98.6,165.1z M134.6,135.3l-21.5-8.4l-17.8,14.7l3.7,23l21.5,8.4l17.8-14.7L134.6,135.3z"></path>	<path class="st1" d="M446.5,341.2l-0.2,0l-10.1-22.4l-0.1-0.2l14.3-20l24.4,2.6l10.1,22.4l0.1,0.2l-14.1,19.8l-0.1,0.2   L446.5,341.2z M474.2,302l-23.5-2.5l-13.7,19.2l9.8,21.7l23.5,2.5l13.7-19.2L474.2,302z M452.5,249.5L445,233l10.4-14.6l17.8,1.9   l7.4,16.5l-10.4,14.6L452.5,249.5z M472.9,220.8l-17.2-1.8l-10,14.1l7.2,15.9l17.2,1.8l10-14.1L472.9,220.8z"></path>	<path class="st1" d="M428.2,484L428.2,484l-6.5-14.3l0,0l9-12.7l0,0l15.5,1.7l0.1,0l6.4,14.3l0,0l-9,12.7l0,0L428.2,484z    M446.1,458.8l-15.3-1.6l-8.9,12.5l6.4,14.2l15.3,1.6l8.9-12.5L446.1,458.8z"></path>	<path class="st1" d="M259.7,248.5L259.7,248.5l13.4-31.8l0-0.1l33.8-4.3l0.1,0l20.3,27.4l0.1,0.1L314,271.5l0,0.1l-33.8,4.3l-0.1,0   L259.7,248.5z M327.1,239.9L307,212.7l-33.5,4.3l-13.4,31.4l20.2,27.1l33.5-4.3L327.1,239.9z"></path>	<path class="st1" d="M239.6,419.9L239.6,419.9l-2.1-13.4l0,0l10.4-8.5l12.5,4.9l0,0l2.1,13.4l0,0l-10.4,8.5L239.6,419.9z    M260.3,403l-12.4-4.9l-10.3,8.4l2.1,13.3l12.4,4.9l10.3-8.4L260.3,403z"></path>	<path class="st1" d="M302.6,539.6L302.6,539.6l-2.1-13.4l0,0l10.4-8.5l12.5,4.9l0,0l2.1,13.4l0,0l-10.4,8.5L302.6,539.6z    M323.3,522.7l-12.4-4.9l-10.3,8.4l2.1,13.3l12.4,4.9l10.3-8.4L323.3,522.7z"></path>	<path class="st1" d="M123,507.8L123,507.8l-2.1-13.4l0,0l10.4-8.5l12.5,4.9l0,0l2.1,13.4l0,0l-10.4,8.5L123,507.8z M143.7,490.9   l-12.4-4.9l-10.3,8.4l2.1,13.3l12.4,4.9l10.3-8.4L143.7,490.9z"></path>	<path class="st1" d="M225.6,153.1L225.6,153.1l-2.1-13.4l0,0l10.4-8.5l0,0l12.5,4.9l0,0l2.1,13.4l0,0l-10.4,8.5l0,0L225.6,153.1z    M246.3,136.2l-12.4-4.9l-10.3,8.4l2.1,13.3l12.4,4.9l10.3-8.4L246.3,136.2z"></path>	<path class="st1" d="M177.7,576.9l-0.1-0.2l14.7-43.3l0.1-0.2L237,524l29.7,34.2l0.1,0.2l-14.7,43.3L252,602l-44.6,9.1L177.7,576.9   z M265.9,558.6l-29.2-33.7l-43.7,9l-14.5,42.7l29.2,33.7l43.7-9L265.9,558.6z"></path>	<path class="st1" d="M95,541.1l-0.2,0l-21.3-54.3l-0.1-0.2l35.8-45.3l0.1-0.2l57,9l0.2,0l21.3,54.3l0.1,0.2l-35.8,45.3l-0.1,0.2   L95,541.1z M166.1,450.8l-56.4-8.9l-35.4,44.8l21,53.7l56.4,8.9l35.4-44.8L166.1,450.8z"></path>	<path class="st1" d="M50,100l-0.2,0L28.4,45.5L64.3,0l57,9l0.2,0l21.3,54.5L107,109L50,100z M121,9.7L64.6,0.8L29.3,45.6l21,53.7   l56.4,8.9L142,63.4L121,9.7z"></path>	<path class="st2" d="M255.4,384.4l19.5-33.5h39l19.5,33.5L313.9,418h-39L255.4,384.4z M332.5,384.4l-19.1-32.7h-38.2l-19.1,32.7   l19.1,32.7h38.2L332.5,384.4z"></path>	<path class="st2" d="M255.4,517.5l19.4-33.5l0.1-0.2h39l19.5,33.8L314,551.1l-0.1,0.1h-39L255.4,517.5z M332.5,517.7l-19.1-33.1     h-38.1l-19.1,33.1l19.1,33.1h38.1L332.5,517.7z"></path>	<path class="st2" d="M197.4,417.8l19.5-33.7h39l19.5,33.7L256,451.3l-0.1,0.2h-39L197.4,417.8z M274.5,417.8l-19.1-32.9h-38.1     l-19.1,32.9l19.1,32.9h38.1L274.5,417.8z"></path>	<path class="st2" d="M197.4,484.6l19.5-33.9h39l19.5,33.9l-19.5,33.9h-39L197.4,484.6z M274.5,484.6l-19.1-33.1h-38.1l-19.1,33.1     l19.1,33.1h38.1L274.5,484.6z"></path>			<path class="st2" d="M370.4,513.6c-0.8,1.4-0.3,3.2,1.1,4c1.4,0.8,3.2,0.3,4-1.1c0.8-1.4,0.3-3.2-1.1-4   C373,511.7,371.2,512.2,370.4,513.6z"></path>	<path class="st3" d="M370.4,453.3"></path>	<path class="st2" d="M369.3,449.3c-0.8,1.4-0.3,3.2,1.1,4c1.4,0.8,3.2,0.3,4-1.1c0.8-1.4,0.3-3.2-1.1-4   C371.9,447.4,370.1,447.9,369.3,449.3z"></path>	<rect x="420.9" y="402.2" transform="matrix(0.5011 -0.8654 0.8654 0.5011 -129.4525 580.5453)" class="st2" width="35.7" height="0.8"></rect>	<path class="st2" d="M445.1,385.7c0.8-1.4,2.6-1.9,4-1.1c1.4,0.8,1.9,2.6,1.1,4c-0.8,1.4-2.6,1.9-4,1.1   C444.8,388.9,444.3,387.1,445.1,385.7z"></path>	<path class="st2" d="M373.8,382.4c-0.8-1.4-2.6-1.9-4-1c-1.4,0.8-1.9,2.6-1,4c0.8,1.4,2.6,1.9,4,1   C374.1,385.6,374.6,383.8,373.8,382.4z"></path>	<path class="st2" d="M427.1,354.3c1.6,0,2.9-1.3,2.9-2.9c0-1.6-1.3-2.9-2.9-2.9c-1.6,0-2.9,1.3-2.9,2.9   C424.1,353,425.4,354.3,427.1,354.3z"></path>	<rect x="509.5" y="416.6" class="st2" width="35.7" height="0.8"></rect>	<path class="st2" d="M509.7,419.9c-1.6,0-2.9-1.3-2.9-2.9c0-1.6,1.3-2.9,2.9-2.9c1.6,0,2.9,1.3,2.9,2.9   C512.6,418.6,511.3,419.9,509.7,419.9z"></path>	<path class="st2" d="M542.5,483.4c-0.8,1.4-0.3,3.2,1.1,4c1.4,0.8,3.2,0.3,4-1.1c0.8-1.4,0.3-3.2-1.1-4   C545.1,481.5,543.3,482,542.5,483.4z"></path>	<path class="st2" d="M491.5,451.3c-0.8-1.4-2.6-1.9-4-1.1c-1.4,0.8-1.9,2.6-1.1,4c0.8,1.4,2.6,1.9,4,1.1   C491.8,454.5,492.3,452.7,491.5,451.3z"></path>	<path class="st3" d="M449.1,451"></path>	<path class="st2" d="M445.1,449.9c0.8,1.4,2.6,1.9,4,1.1c1.4-0.8,1.9-2.6,1.1-4c-0.8-1.4-2.6-1.9-4-1.1   C444.8,446.7,444.3,448.5,445.1,449.9z"></path>	<path class="st3" d="M564.6,517.2"></path>	<path class="st2" d="M560.6,516.1c0.8,1.4,2.6,1.9,4,1.1c1.4-0.8,1.9-2.6,1.1-4c-0.8-1.4-2.6-1.9-4-1.1   C560.3,512.9,559.8,514.7,560.6,516.1z"></path>	<rect x="264.9" y="248.8" transform="matrix(0.8637 -0.5041 0.5041 0.8637 -98.9274 170.2563)" class="st2" width="0.8" height="38.3"></rect>	<path class="st2" d="M272.4,285.9c0.8,1.4,2.6,1.9,4,1.1c1.4-0.8,1.9-2.6,1.1-4c-0.8-1.4-2.6-1.9-4-1.1   C272,282.7,271.5,284.5,272.4,285.9z"></path>	<path class="st2" d="M255.1,254.4c1.6,0,2.9-1.3,2.9-2.9c0-1.6-1.3-2.9-2.9-2.9c-1.6,0-2.9,1.3-2.9,2.9   C252.2,253.1,253.5,254.4,255.1,254.4z"></path>	<path class="st2" d="M142.2,249.9c-0.8-1.4-2.6-1.9-4-1.1c-1.4,0.8-1.9,2.6-1.1,4c0.8,1.4,2.6,1.9,4,1.1   C142.6,253.1,143,251.3,142.2,249.9z"></path>	<rect x="129.9" y="234.2" transform="matrix(0.4886 -0.8725 0.8725 0.4886 -128.365 250.2325)" class="st2" width="38.7" height="0.8"></rect>	<path class="st2" d="M161.2,219.3c0.8-1.4,0.3-3.2-1.1-4c-1.4-0.8-3.2-0.3-4,1.1c-0.8,1.4-0.3,3.2,1.1,4   C158.6,221.2,160.4,220.7,161.2,219.3z"></path>	<rect x="146.7" y="183.9" transform="matrix(0.7796 -0.6263 0.6263 0.7796 -94.8384 136.8678)" class="st2" width="0.8" height="38.5"></rect>				<path class="st2" d="M137.4,186.4c-1-1.3-2.9-1.5-4.1-0.4c-1.3,1-1.5,2.9-0.4,4.1c1,1.3,2.9,1.5,4.1,0.4   C138.2,189.5,138.4,187.7,137.4,186.4z"></path>	<path class="st2" d="M23.7,317.8l19.5-33.7h39l19.5,33.7l-19.4,33.5l-0.1,0.2h-39L23.7,317.8z M100.9,317.8l-19.1-32.9H43.7   l-19.1,32.9l19.1,32.9h38.1L100.9,317.8z"></path>	<path class="st2" d="M139.4,517.5l19.5-33.7h39l19.5,33.8L198,551.1l-0.1,0.1h-39L139.4,517.5z M216.5,517.7l-19.1-33.1h-38.1   l-19.1,33.1l19.1,33.1h38.1L216.5,517.7z"></path>	<path class="st2" d="M139.4,584.7l19.4-33.8l0.1-0.1h39l19.5,33.9l-19.5,33.9h-39L139.4,584.7z M216.5,584.6l-19.1-33.3h-38.1   l-19.1,33.3l19.1,33.3h38.1L216.5,584.6z"></path>	<path class="st2" d="M81.4,484.6l19.4-33.8l0.1-0.2h39l19.5,33.9L140,518.4l-0.1,0.2h-39L81.4,484.6z M158.5,484.6l-19.1-33.1   h-38.1l-19.1,33.1l19.1,33.1h38.1L158.5,484.6z"></path>		<path class="st2" d="M81.4,417.7l19.4-33.6l0.1-0.1h39l19.5,33.7l-19.5,33.7h-39L81.4,417.7z M158.5,417.8l-19.1-32.9h-38.1   l-19.1,32.9l19.1,32.9h38.1L158.5,417.8z"></path>	<path class="st2" d="M23.7,517.7l19.5-33.5h39l19.5,33.5l-19.5,33.5h-39L23.7,517.7z M100.9,517.9L81.8,485H43.7l-19.1,32.9   l19.1,32.9h38.1L100.9,517.9z"></path>	<path class="st2" d="M23.4,384.5l19.4-33.3l0.1-0.3h39l19.5,33.5L82,417.7l-0.1,0.2h-39L23.4,384.5z M100.5,384.4l-19.1-32.7   H43.3l-19.1,32.7l19.1,32.7h38.1L100.5,384.4z"></path>	<path class="st2" d="M139.5,318l19.4-33.5l0.1-0.2h39l19.5,33.7L198,351.7h-39L139.5,318z M216.6,318l-19.1-32.9h-38.1L140.4,318   l19.1,32.9h38.1L216.6,318z"></path>	<path class="st2" d="M139.5,384.5l19.4-33.3l0.1-0.3h39l19.5,33.5L198,418h-39L139.5,384.5z M216.6,384.4l-19.1-32.7h-38.1   l-19.1,32.7l19.1,32.7h38.1L216.6,384.4z"></path>	<polygon class="st2 h1" points="313.7,484.2 333,450.9 313.7,417.5 275.1,417.5 255.8,450.9 275.1,484.2"></polygon>	<polygon class="st2 h1" points="255.7,584.3 275,551.2 255.7,518.1 217.1,518.1 197.8,551.2 217.1,584.3"></polygon>	<polygon class="st2 h1" points="429.8,550.6 449.1,517.5 429.8,484.4 391.2,484.4 371.9,517.5 391.2,550.6"></polygon>	<polygon class="st2" points="487.7,583.7 507,550.6 487.7,517.5 449.1,517.5 429.8,550.6 449.1,583.7"></polygon>	<polygon class="st2 h1" points="197.7,484.2 217,450.9 197.7,417.5 159.1,417.5 139.8,450.9 159.1,484.2"></polygon>			<polygon class="st2" points="332.7,518 371.5,518 371.5,517.2 333.1,517.2 314,484.3 333.1,451.3 371.2,451.3 390.3,484.3    372.5,515 373.2,515.4 391.2,484.3 371.7,450.6 332.7,450.6 332.5,450.8 313.1,484.3"></polygon>		<polygon class="st2" points="332.5,451.3 333.2,450.9 314,417.8 333.1,384.8 371.2,384.8 390.3,417.8 371.4,450.7 372.1,451.1    391.2,417.8 371.7,384 332.7,384 332.5,384.2 313.1,417.8"></polygon>		<polygon class="st2" points="391,418.4 429.8,418.4 429.8,417.6 391.4,417.6 371.5,383.5 370.8,383.9"></polygon>			<polygon class="st2" points="372.3,384.9 391.4,351.7 427.2,351.7 427.2,351 391,351 390.9,351.2 371.6,384.5"></polygon>	<polygon class="st2" points="545.3,485.1 565,450.4 545.6,416.8 544.9,417.2 564.1,450.4 544.6,484.8"></polygon>	<polygon class="st2" points="545.4,484.2 545.4,483.4 507.1,483.4 489.2,452.4 488.5,452.8 506.7,484.2"></polygon>	<polygon class="st2" points="391,484.7 429.8,484.7 429.8,483.9 391.4,483.9 372.4,451 391.4,418.1 429.6,418.1 447.4,448.8    448,448.4 430,417.3 391,417.3 390.9,417.5 371.5,451"></polygon>	<polygon class="st2" points="506.5,550.9 545.3,550.9 545.3,550.1 507,550.1 487.9,517.2 507,484.2 545.1,484.2 562.9,515    563.6,514.6 545.5,483.5 506.5,483.5 506.4,483.7 487,517.2"></polygon>	<polygon class="st2" points="216.8,318.5 255.8,318.5 256,318.3 275.2,285 274.6,284.6 255.4,317.7 217.3,317.7 198.2,284.8    217.3,251.8 255.3,251.8 255.3,251.1 216.8,251.1 197.3,284.8 197.4,285"></polygon>	<polygon class="st2" points="158.9,285.2 197.9,285.2 217.4,251.5 217.3,251.3 198,218 197.3,218.4 216.5,251.5 197.5,284.4    159.3,284.4 140,251.1 139.3,251.5"></polygon>	<polygon class="st2 h1" points="139.7,584.3 159,551.2 139.7,518.1 101.1,518.1 81.8,551.2 101.1,584.3"></polygon>	<polygon class="st2 h1" points="82.1,484.6 101.3,451.1 82.1,417.5 43.5,417.5 24.2,451.1 43.5,484.6"></polygon>	<polygon class="st2 h1" points="139.7,384.4 159,351.3 139.7,318.2 101.1,318.2 81.8,351.3 101.1,384.4"></polygon>	<polygon class="st2 h1" points="255.9,384.4 275.2,351.1 255.9,317.8 217.3,317.8 198,351.1 217.3,384.4"></polygon>	<polygon class="st2 h2" points="82.1,351 101.4,317.7 82.1,284.3 43.5,284.3 24.2,317.7 43.5,351"></polygon>	<polygon class="st2 h2" points="197.8,351 217.1,317.7 197.8,284.3 159.2,284.3 139.9,317.7 159.2,351"></polygon>	<polygon class="st2 h2" points="140.3,450.9 159.6,417.5 140.3,384.2 101.7,384.2 82.4,417.5 101.7,450.9"></polygon>	<polygon class="st2 h2" points="255.8,450.9 275.1,417.5 255.8,384.2 217.2,384.2 197.9,417.5 217.2,450.9"></polygon>	<polygon class="st2 h2" points="371.5,450.7 390.8,417.4 371.5,384.1 332.9,384.1 313.7,417.4 332.9,450.7"></polygon>	<polygon class="st2 h2" points="82,550.8 101.3,517.5 82,484.2 43.4,484.2 24.2,517.5 43.4,550.8"></polygon>	<polygon class="st2 h2" points="197.3,551 216.6,517.7 197.3,484.4 158.7,484.4 139.4,517.7 158.7,551"></polygon>	<polygon class="st2 h2" points="312.9,551.4 332.2,518.1 312.9,484.8 274.4,484.8 255.1,518.1 274.4,551.4"></polygon></svg>